<svg width="266" height="264" viewBox="0 0 266 264" fill="none" xmlns="http://www.w3.org/2000/svg">
<path fill-rule="evenodd" clip-rule="evenodd" d="M134.405 0.595652C134.211 1.01986 134.05 2.58786 134.045 4.08011C134.001 20.5776 130.328 57.7855 127.389 71.5002C124.636 84.3537 122.842 88.6769 118.458 93.023C112.733 98.6986 108.029 99.201 99.7123 95.0252C96.259 93.2915 89.27 88.375 88.2858 86.9874C88.1481 86.7931 88.0677 86.8217 88.0647 87.0667C88.0623 87.2784 88.5668 88.207 89.1859 89.1302C95.1366 98.005 97.4124 108.738 94.6027 114.681C93.2745 117.49 89.6833 121.012 86.4155 122.711C78.8202 126.659 70.8031 128.082 50.1754 129.143C48.716 129.217 46.527 129.348 45.3108 129.433C44.0947 129.517 39.3185 129.851 34.6972 130.175C30.0758 130.499 24.172 130.891 21.5775 131.046C13.8729 131.509 0.111093 132.516 0.00112365 132.625C-0.0548929 132.682 1.99059 132.819 4.54701 132.93C7.10343 133.041 11.981 133.324 15.3862 133.558C18.7914 133.792 22.6389 134.054 23.9361 134.139C30.3889 134.565 47.2776 136.258 53.5659 137.11C81.1278 140.842 91.375 144.504 95.3468 152.042C97.6863 156.481 95.1623 166.657 89.3849 176.078C88.5223 177.484 88.8206 177.678 90.2175 176.62C91.3446 175.765 97.5822 172.647 99.8532 171.804C107.972 168.788 113.928 168.684 118.048 171.488C126.104 176.969 131.398 198.353 133.18 232.605C133.349 235.847 133.536 239.363 133.595 240.417C133.654 241.47 133.802 247.208 133.924 253.166C134.145 264 134.145 264 134.999 264C135.853 264 135.853 264 135.816 262.158C135.783 260.467 136.257 252.547 136.999 242.406C137.162 240.177 137.43 236.462 137.595 234.152C139.506 207.255 143.271 183.6 146.733 176.741C148.094 174.043 151.831 170.851 155.815 168.983C158.465 167.739 163.455 167.632 166.297 168.756C168.16 169.492 174.058 172.793 178.54 175.607C180.062 176.563 181.371 177.283 181.446 177.208C181.521 177.132 181.105 176.284 180.521 175.322C172.592 162.272 171.545 151.196 177.563 144.045C180.173 140.943 188.187 138.757 200.83 137.699C201.965 137.604 207.405 137.138 212.918 136.665C218.431 136.191 224.866 135.662 227.217 135.488C229.568 135.315 233.018 135.042 234.883 134.882C236.747 134.722 241.125 134.398 244.612 134.162C267.577 132.608 268.818 132.473 263.186 132.135C255.741 131.689 237.619 130.226 229.626 129.428C229.031 129.368 227.615 129.236 226.48 129.133C220.855 128.624 209.666 127.239 202.157 126.122C199.319 125.7 196.666 125.331 196.261 125.302C195.855 125.273 195.325 125.177 195.081 125.089C194.838 125.001 193.379 124.694 191.838 124.407C184.096 122.962 180.125 121.48 177.951 119.225C173.679 114.793 172.169 109.956 173.037 103.485C173.835 97.5345 175.767 94.6137 183.731 87.3131C184.541 86.5697 185.304 85.958 185.426 85.9533C185.548 85.9488 185.647 85.8103 185.647 85.6458C185.647 85.369 183.848 86.4167 180.193 88.8225C172.048 94.1827 164.032 95.9016 157.639 93.6589C149.155 90.6823 145.853 86.7126 142.516 75.4799C140.897 70.0327 139.812 61.7794 138.019 41.2839C137.778 38.5276 137.513 35.2111 137.43 33.914C137.348 32.617 137.017 27.4433 136.695 22.4171C136.373 17.3909 136.024 10.5417 135.92 7.19695C135.764 2.20463 135.643 0.999518 135.243 0.46948C134.756 -0.176116 134.756 -0.176116 134.405 0.595652ZM144.224 100.565C152.374 101.756 158.754 105.203 163.022 110.721C165.258 113.611 168.328 119.548 167.589 119.552C167.548 119.552 163.867 120.29 159.408 121.193C147.874 123.527 148.732 123.503 147.826 121.524C143.347 111.741 126.628 112.323 122.86 122.392C120.597 128.439 120.855 139.49 123.376 144.483C126.037 149.754 133.262 152.107 140.431 150.035C144.232 148.938 148.157 144.326 148.968 140.004C149.075 139.43 149.337 138.894 149.549 138.813C149.761 138.731 153.711 139.67 158.327 140.898C162.942 142.126 167.031 143.165 167.412 143.207C168.278 143.301 168.852 143.778 168.568 144.167C168.449 144.329 168.047 145.324 167.674 146.378C162.52 160.954 148.979 167.249 128.043 164.8C112.243 162.953 102.346 154.031 99.8411 139.379C96.7732 121.435 104.69 106.883 120.156 102.035C126.847 99.9382 136.08 99.374 144.224 100.565Z" fill="currentColor"/>
</svg>
